<mxfile host="app.diagrams.net" modified="2023-12-11T06:07:13.970Z" agent="Mozilla/5.0 (Macintosh; Intel Mac OS X 10_15_7) AppleWebKit/537.36 (KHTML, like Gecko) Chrome/119.0.0.0 Safari/537.36" etag="q-rlYuWs8570Fj_5tD9H" version="22.1.7" type="device">
  <diagram name="Page-1" id="VqXtpHVocXvW-kXdQNEG">
    <mxGraphModel dx="1640" dy="1050" grid="1" gridSize="10" guides="1" tooltips="1" connect="1" arrows="1" fold="1" page="1" pageScale="1" pageWidth="1400" pageHeight="850" math="0" shadow="0">
      <root>
        <mxCell id="0" />
        <mxCell id="1" parent="0" />
        <mxCell id="XLvU0yG2LY_oLD_sJJi3-68" value="" style="group;movable=1;resizable=1;rotatable=1;deletable=1;editable=1;locked=0;connectable=1;" vertex="1" connectable="0" parent="1">
          <mxGeometry x="354" y="45.54" width="965.0699999999999" height="760.46" as="geometry" />
        </mxCell>
        <mxCell id="XLvU0yG2LY_oLD_sJJi3-39" value="" style="rounded=1;whiteSpace=wrap;html=1;strokeColor=#d79b00;strokeWidth=3;glass=0;shadow=0;movable=1;resizable=1;rotatable=1;deletable=1;editable=1;locked=0;connectable=1;fillColor=#ffe6cc;" vertex="1" parent="XLvU0yG2LY_oLD_sJJi3-68">
          <mxGeometry x="-30" y="0.46000000000000085" width="630" height="760" as="geometry" />
        </mxCell>
        <mxCell id="XLvU0yG2LY_oLD_sJJi3-1" value="Amazon EC2" style="outlineConnect=0;strokeColor=#d79b00;fillColor=#ffe6cc;verticalLabelPosition=middle;verticalAlign=bottom;align=center;html=1;whiteSpace=wrap;fontSize=16;fontStyle=1;spacing=3;shape=mxgraph.aws4.productIcon;prIcon=mxgraph.aws4.ec2;horizontal=1;labelBorderColor=none;strokeWidth=12;dashed=1;dashPattern=8 8;gradientColor=none;" vertex="1" parent="XLvU0yG2LY_oLD_sJJi3-68">
          <mxGeometry x="-54" y="-25.54" width="110" height="140" as="geometry" />
        </mxCell>
        <mxCell id="XLvU0yG2LY_oLD_sJJi3-43" value="" style="group;rounded=1;" vertex="1" connectable="0" parent="XLvU0yG2LY_oLD_sJJi3-68">
          <mxGeometry x="4" y="584.46" width="164.46" height="160" as="geometry" />
        </mxCell>
        <mxCell id="XLvU0yG2LY_oLD_sJJi3-29" value="" style="shape=cylinder3;whiteSpace=wrap;html=1;boundedLbl=1;backgroundOutline=1;size=15;strokeColor=#82b366;rounded=1;strokeWidth=3;fillColor=#d5e8d4;" vertex="1" parent="XLvU0yG2LY_oLD_sJJi3-43">
          <mxGeometry width="150" height="160" as="geometry" />
        </mxCell>
        <mxCell id="XLvU0yG2LY_oLD_sJJi3-24" value="" style="shape=image;verticalLabelPosition=bottom;labelBackgroundColor=default;verticalAlign=top;aspect=fixed;imageAspect=0;image=https://cdn.icon-icons.com/icons2/2415/PNG/512/mongodb_original_wordmark_logo_icon_146425.png;" vertex="1" parent="XLvU0yG2LY_oLD_sJJi3-43">
          <mxGeometry x="26.76" y="38.415" width="93.17875" height="93.17875" as="geometry" />
        </mxCell>
        <mxCell id="XLvU0yG2LY_oLD_sJJi3-72" value="" style="shape=image;html=1;verticalAlign=top;verticalLabelPosition=bottom;labelBackgroundColor=#ffffff;imageAspect=0;aspect=fixed;image=https://cdn1.iconfinder.com/data/icons/social-media-2106/24/social_media_social_media_logo_docker-128.png" vertex="1" parent="XLvU0yG2LY_oLD_sJJi3-43">
          <mxGeometry x="108" y="-22.460000000000036" width="62.46" height="62.46" as="geometry" />
        </mxCell>
        <mxCell id="XLvU0yG2LY_oLD_sJJi3-87" value="" style="endArrow=classic;startArrow=classic;html=1;rounded=0;labelBackgroundColor=default;strokeColor=#666666;strokeWidth=3;align=center;verticalAlign=middle;fontFamily=Helvetica;fontSize=12;fontColor=default;shape=connector;" edge="1" parent="XLvU0yG2LY_oLD_sJJi3-68">
          <mxGeometry width="50" height="50" relative="1" as="geometry">
            <mxPoint x="606" y="133.63" as="sourcePoint" />
            <mxPoint x="686" y="133.46" as="targetPoint" />
          </mxGeometry>
        </mxCell>
        <mxCell id="XLvU0yG2LY_oLD_sJJi3-82" value="" style="shape=image;verticalLabelPosition=bottom;labelBackgroundColor=default;verticalAlign=top;aspect=fixed;imageAspect=0;image=https://upload.wikimedia.org/wikipedia/commons/thumb/f/fa/GoDaddy_logo.svg/800px-GoDaddy_logo.svg.png;" vertex="1" parent="XLvU0yG2LY_oLD_sJJi3-68">
          <mxGeometry x="716" y="120" width="190.1" height="38.97" as="geometry" />
        </mxCell>
        <mxCell id="XLvU0yG2LY_oLD_sJJi3-79" value="" style="shape=image;verticalLabelPosition=bottom;labelBackgroundColor=default;verticalAlign=top;aspect=fixed;imageAspect=0;image=data:image/png,iVBORw0KGgoAAAANSUhEUgAAAgAAAAIACAYAAAD0eNT6AAAABHNCSVQICAgIfAhkiAAAAAlwSFlzAAAOxAAADsQBlSsOGwAAABl0RVh0U29mdHdhcmUAd3d3Lmlua3NjYXBlLm9yZ5vuPBoAACAASURBVHic7N13vB1F+cfxz73ppAcSaiDUBOlEQATp8LPQxfYTaQKCoAj+BAsoFgRFQUSxABYsICiIKNJBaRKq0kJoCQktgXTSc8/vj+decxNucs/ZZ3Zmd8/3/XrtK1Gyu8/smd2d3Z15pgURKbpewPD2ZW1gCDC4/c/Ofx8I9AUGtK8zBOjR/t87Gwy0dvrf84EF7X+fByxs//tbwKL2v88FFrf/OQOY3r6s7O8zXSUWkdy1pA5ApIm1YDf0kcA67X+uB6zb/vfhwAhgWKoAHdqAN4FXgZfalynAZGBS+58vY40KEUlADQCRfPUANgRGAxsBG7cvG7UvfdOFllwb8BrWIJgCTATGA0+2/zkrWWQiTUANAJEwegJjgC2AzduXMdiNv0/CuMpsCvB0+/JUpz/fSBmUSFWoASDSuEHAtsA27cu2wJboRh/LG9hbgseAB9uXZ4FayqBEykYNAJFV64k9xY8FdgF2xZ7sW1e1kkQ3G3gceLh9uRt4MWlEIgWnBoDI8oZjN/rdgHcD2wG9k0YkWU0BxmFvCP7VvixY5RoiTUQNAGl26wJ7A+/Bbvybpw1HcrQAuBe4A7gTaxgsSRqRSEJqAEizGQC8C9infdkenQfN6i3gfuC29uVRbGSCSFPQhU+qrhXYAXg/8D7sht8jaURSVG8AdwG3AzdiuQtEKksNAKmiYdhr/X2A/bEkOyKNegq4Afgr9ulAowykUtQAkKoYiT3hHwD8D5YKVySUl4CbsMbAzSxLkSxSWmoASJltDhzSvoxF9VnimAX8HbgeaxRo3gMpJV0wpWw2Aj7avmyVOBaRxdgbgd9hDYL5acMRqZ8aAFIG6wIfxm76OyaORWRl5gDXAr/FhhkuTRuOyKqpASBF1Q84FDgC69DX7D33l2Cz601v/7Pz36djPdjfxDLiwbLpe8FeUdewG1LHf1+ITf0Ldqw7JiVajWUpjfuzLAnSwPb/fyjWyXJYN39v5kmOAF4BrsIaA48mjkWkS2oASJG0YKl2jwQ+hOXcbwYLsJnwJq2wTMRuJJ1v7GUxAFi/femY5niD9r93LM3SSHgKawj8HvtdRQpBDQApguHAUcBxwKZpQ8nNNCxX/dMsu7m/1P7319KFldSaWENgFNah8x3YPAtjqGbjoAbcCvwUG16oLISSlBoAktJY4HjgE9hr6CqYA0zAnvqe7PTnCymDKqF1sAbBFp3+3Br7FFEFrwJXAJeghEOSiBoAEttg4BjgBGCzxLF4TcQmmPk38ET7MgkljMnThlhH0B3al7FYX4WyWoyNHvgpNkeB6o5EowaAxLIpcDJ28x+QOJYsFgP/wTLCPQz8E2sASFo9sE8GYzst72RZR8YyeRa4HLgM6/chIlJarVhmvluwSVZqJVpeAv4AfA7YCU0JXCb9gJ2BL2AJe+aSvj41sszDGgJbhD4wIiJ564N16BtP+otpvcvrWE/tT2A91qU6emGjS76KTfazgPT1rZ6lDfgLNk21iEihDQJOAaaQ/uLZ3bIYeAg4G3tt3Br+cEhB9cMaBGdgvfIXkr4+drc8hOXEUD0VkUJZB7gQ6wGf+kK5qmUC8CPss0QZ+yFIPoZgWSavZFnSpKIuT2ANAU12JSJJbQD8mOK+Ul2KvfI9GZtDQKQ7vbBppC/GOnmmrsMrWyZh/VPUkBWRqDbGeioX8dXpEuB24ERgrbwOgDSN7YCvYSM/UtftrpY3sb4NVcmPICIFtQHwC+z7eeoLX+dlMfYt91PAiNxKL81uJNbH5UHS1/kVl2nA56lOQi0RKYjhwHnYVKepL3QdyxLgHuyCvGZ+RRfp0iisE+EE0p8LnZcp2DlRxjwIIlIgw7Be8rNJf2HrWJ7GLrx60peiGAtchA0lTX1+dCwTsTTbzT6Lpog0qDf2FDGD9BeyGtYAuQLrnKXslVJUPbA6egXFST70FDazps4bEVmlVmyIUUc++9TL3dgsgWXO9S7NaQjwWewGnPo8qgHjsMaJiMjb7A08QvoL1avY69St8i2uSDRjsbcCi0h/ft2KTb0sIsImWLrR1Bemu4EPAj3zLa5IMmsBZ2LzTKQ81xZgnXqVQ0CkSa2GdfBL2bN/KXADNnGLSLNoxV7HX42NZkl1/r2CdRRUemGRJtECHA68TLoLz3TsCUST7kiz2xjLpjmPdOfj/cAOeRdURNLaEnvVnupCMwE4CXXqE1nRCOBbWOM4xbm5FEvypZwaIhXTH/gO6Toh3QkciF41inRnIHAaMJk05+osLKOg+uKIVMABwIukuZjcA+yRewlFqqcXNiT3SdKcu/9GnwVESmtd4DrSXDxuBXbJv4gildcKHIx9p499Hi/G3hxqfgGREvkQNktYiif+vSKUT6QZ7QM8RPzz+nksT4iIFNgo4BbS3Ph1gRDJXwv2We/fxD3H27BkRsPyL6KINKIVy90fO//4P4A9I5RPRJbXAzgam/Qn5jn/MnBQ/sUTkXpsiN2IY14E/g3sG6NwIrJKvYGTsRTaMa8Bf0BDBkWSOo64U/W+1r5PTTEqUiyrYdNkx+z78wZwSIzCicgyawLXE+9EX4hN0DM4RuFEJLOh2Lm6mHjXhyvQvAIiUXwQa3nHOLHbsFd9G0YpmYiEshVwO/EaAeOxWQ9FJAf9sJZ9rBP6IWC3KCUTkbwcALxAnGvGYmyCMX0iFAloC+A/xDmJp6AZwkSqpDc2SihWf6E70ERfIm4twGeJM2XvEuD7aKIekaoaCVyJfdrL+3ryJva5UkQyGEq8jn6PoO93Is3iPcATxLm2XIY6CIo0ZHvgOfI/Oedh3+x6RymViBRFL2zY4ALyv86MB94Rp1gi5XYEdmPO+6S8C9gsTpFEpKC2IM5EQ7OBwyKVSaR0BmDf5/I+EacCh0cqk4gUXw/ipBJvA76NRgmILGcT4HHyv/lfDQyPVCYRKZdRwE3kfx26E6URFgHgfcB08j3hJqPc/SJSnyPJP6XwRNTxWJpYC/BFbPhdnifaH9AUniLSmDWBa8n32jQfOCZWgUSKoj/2Oj7Pk2sW1qFQRCSr48i/b8DPgD6xCiSS0nrYuPs8T6h7UP5+EQljNJYaPM9r1v3AiFgFEklhW+Al8juJlItbRPLQE7u25PnJ8gVg80jlEew7tMRxGPBrbN7uPLwIfAK4N6ftS3n1AtbBRoCsDgxq//+HtP85s/3P2dhMk28Ar2ANSpHO9sSm/80r1/8MLIXwnTltXySqFuBM8s2//VOUw1+gL7ALcCxwPvAXYALZ5oZfDDzTvo3vtm9zl/Z9SHMbBlxDftezhdhIBJFS6wX8kvxOlFnAodFKI0XTAxtKdQZwK3EmjVqMfQ8+D9gHpZFuZscAc8innrUB30BvqaWkBgB/I78LsfJrN6fewCHYEK28Lr6NLHOAPwEHo8ZAMxoNPEl+9etqoF+00ogEsBb59pr9MzA4WmmkCMYCF2GpnFPf9Fe2zMCGdO2KntyayUDy/SRwH8pgKiUxBuuQl8eJsBg4NV5RJLFewFHAU6S/uTe6PIl9x+0V+qBIIeWd2OwZLGW6SGHtiPWgzuMEeBXYLV5RJKHeWBKnZ0l/I/cuE7GJZvQatznsA0wjn7o0BVg/XlFE6rc3+X2TvQcbxiXV1gt7w/MK6W/coZeXsYaA3ghU3/rAg+RTj+5Fn5ekYA4BFpBPhf8humg2g92AJ0h/o857eQZNTNUM+gKXkU8d0sgnKYyjyee71wLg8IjlkDTWwhKr5JknoojL1WhK2GZwHOEfjv4UtQQiK3Eq+Vy438B6Uku1HY9l4Ut9M061zMBuEFJtuxN2euFJccMXebszyOeiOAHYNGI5JL6BwJWkvwEXZbmWZWmJpZpGA88Rpr68FTl2keWcST4XwruxXO1SXdtTjd79oZcXgZ0cx1WKbzjWic9bV16OHbhIh7ye/K9BQ6Wq7mTy6yxahWU+cGLmoytl0Af4Hb56cl30qEWw3NR5XPguAlojlkPiagG+R/obbFmWi9H5UGUt2NTCWevHYdEjriiNp6zfuVimq5AWAycAvwi8XSmO3tg00B9NHMdibL71Wdi0v7NZ9i21PzZF8CAsxfRGpB96+ntshM2ixHFIfo4FLqGxuvYQ8C5gaS4RiXTh64R/ypmJZc2S6hoA3Ez8J+iZ2DS+XwAOADYDejYQd6/2dQ4ETm/f1qwE5bip/RhKde1L/SNhXkPpgCWyPDr8vQJsGbMQEt1QYBzxbpYPYf1TdsCmCQ6tB9ZJ70vAIxHL9QB2LKW6xgCP0X393ihVgNKc8ujwNwm1YquuH/BP8r85voz1H9kuTrGW8w7sO+6LdcbqWe7HPlNIdfXCEp/dyLIZL18H/gr8L+oTIpGdSvgL2QQ0mUXV9cDGted5Q3wCmyyokdf6eWkFPkS+c8LXgBsoRnlFpOKOIHyGv6fQhD5V1wL8kvxugo9g804U8WmoFfgg3b/K9SyXoY7LIpKjg7Ae0yEvXA8Da8QshCRxHvnc+KZj4+OLeONfUQ/gJCzNbx7H4lvxiiIizWQvLBlJyAvWOGBYzEJIEocR/mbXBvwKGBGvGMGsCfyG8G/S2oCDI5ZDRJrAjtjY6JAXq7uwvO9SbRsQdrKTGjY0qgoJTw4k/LGZAWwYsxAiUl1jsBn4Ql6kbsDmxJZq64X1Ug9Zd8ZRrRvc+oTJAb/iMeodsxAiUj1rYRnSQl6criF9JjWJ4yLC1p2LqWbd6YVlfQt5rC6IWgIRqZSBWAe9kBelm7AJL6T69iPcN+424Mtxw0/iLMKda23A3nHDF5Eq6IXdrEPe/G9Hr/2bRW9gPGHqzRLg+LjhJ3UU4UbaTEANbhFpQAs2AU/Im//9KG95Mwn1JLsU+Fjk2Ivg41jZQxzDZnhzIiKBhHwNWcOSnyhfefPYAJtJL0Td+Vzk2Ivk04Q5hvOoVqdJyccQLEfFlcCtWNrh87HZBaVJfJBwTx417DXwmlFLIKndQJi68/XYgRfQuYQ5ln+OHbiURgtwMjCXldef21AjsvK2Z9WVoNHlWZTet9nsQZi689vIcRdVC3AVYY7prpFjl+JrAX5CffXnVWySK6mgdYDJhLv5vwSMilkAKYTb8NedCShBVGcDgKfxH9e/xw5cCu+zNFaHJgHDk0QquelP2DnMX0FT+jajHfHXnfnAtrEDL4GtsG/53uO7Q+zApbCGkC276x1o5snKaAGuJtzNfyawZdQSSFH8BX/9OTF61OVxMv7je130qKWoTiB7PbowQbySgy8T7ua/CNg3bvhSENvgT/rzAOWY0S+VVuA+fMe4DXubIPIbfHXp6PghS0j7YklWQjUATogbvhTIpfjqzmKsESGrtj3+c/Zn0aOWIroVXz2ah9VHKaFNCTsnueYhb1598dcl5a2v38X4jvVMoF/0qKVoQgzXnYg6BZbOAOAJwt38r8T6Ekhz+gj+G9Lg6FGX1zBgFr5j/qHoUUvRnEOY6786BZbMFYS7+d+N8vs3u7/hq0N6e9S48/Ad87/ED1kKZhvC3QfUKbAkQqUXrQHPAyPihi8FMwLfxDVvoVeIWYzAl255McrQKeGydtaw+SukwLYhzFjiGvAGsFnc8KWAvEPT9O0/u4vwHXsNuZR1gKmEuSfMQfeEwhqCPbGH+KEXAnvGDV8K6jp8dWl0/JArYzN8x/6P8UOWAtoVG8Id4t7wMJp+unBagOsJ8wPXgMPjhi8F1QOYTvZ6dF/8kCvnAbIf/zdR3gUxnyPc/UFv9QrmFML9uBdFjl2K65346pJeQft5P8FsFz9kKahfEOYe0QYcGDl2WYktCffd/36gd9zwpcC+QPa6tBAbziY+a+B7ffv5+CFLQfUFHiTMvWIqmgk2ub7Afwjzg74GrBs3fCm4G8len+5MEG9V/ZPsv8NfE8QrxbU+4ToF3oV9JpREfk6YH3IxsHvk2KX4PBeKryaIt6rOJvvv8Gr8cKXg9sI3tLfz8uXIsUu7DxLmB6wBp0WOXYpvGL46tWv8kCtrd3y/xZD4IUvBnUa4h8d3R4696a2NjdMP8QNei9L8ytu9i+x1ai7qSxJSH3xJgXaMH7KUwO8Icw95EaX6juqvhPnhxgODIscu5XAU2evV/fHDrbxxZP89PpEgXim+/sDThLmXXBY59iDKOEb2eOADAbYzBzgEmB1gW1I9ngQ+44NFIR08x1TJmKQrbwEfBhYE2NYngfcF2E5UZWsAbAh8L9C2jsJafyJd8aT8nBAsCunwjGNdNQBkZR4HvhRoW5ei/ia5acWGXYR4XfPTuKFLCd1H9vp1SIJ4q+4wsv8edyeIV8ojZCbZSyPH3jRCZft7Bvv2I7Iq48lex8YmiLfqdiD77/FUgnilXNYAXibMPea9kWOvvFHYN3vvD7MY2Clu6FJS08hezzRjWHijyf57vJ4gXimf3YEl+O8zU9CngGBagFsI0zL7SuTYpbzmkr2erZUg3qpbh+y/hzr6Sr3OIcy95mexA6+q4wjzg9yD0jZK/TyZwvSJKbyBZP89FiaIV8qpJ3av8N5v2oD/iRx75ayDbzrWjmUOsEnk2KW8WvDVt7KNrimDVny/iZJ9Sb1GYW+NvPediVjDVTK6jjBP/0fEDlxKz/MtsG+CeKtuNbL/HosSxCvldiJh7j0XxA68Kt5HmB/gT7EDl0rwpJ4dniDeqluT7L/HnATxSrm1ADfjv/8sBraJHHvprQa8gP/gT0Fzsks2nk9PGyeIt+o2Ifvv8UaCeKX8RhHmU8A96BNUQ76D/6C3AfvGDlwqw9MAVYs/vO3I/ns8myBeqYaT8N+LaugzdN22wL7ZeQ/4ryLHLdXyANnrXulygpfA/mT/Pe5LEK9UQ6hh6K9RwNwAReut3IKNn+zl3M404P/84UgTm+ZYV7nnw/MkV9InAMmqhk1AN9e5nTWBb/jDCatoDYDDgV0CbOc0dNKLzxTHumoAhDfGse7kYFFIM5oIfDnAdj6NfcqSLgwgTC7m21GHC/E7nex18I4E8VbdP8j+e5yWIF6pllCT0Y2jeA/ehXAe/oP7FuqBLWF8kOz1cBpqhIbUCrxJ9t/j4PghSwVtCizAf586JnbgRbcxYQ6svvtLKJvjq4tbxw+5sjwjAGrYhVskhG/jv09NpYAdAlO6Af9B/Tf+zoMiHVrxzUB5SvyQK+vzZP8d5qBXrhLOasCL+O9X58YOvKj2xH8wl6A52CW8+8heJ/+cIN6q+ivZf4e7E8Qr1XYo/nvWfGD92IEXTSvwMP6D+b3YgUtTuIDsdXImmhMghH74srHp2iB5+Bv++9Yvo0ddMJ/AfxAno+lXJR8H46ubh8UPuXI+iu832D9+yNIENsGe4j11cylNPCywLzAJfwPg8NiBS9MYhp2kWevm9fFDrhzPk9YS1NlK8vMN/PevG6NHXRBfxH/wHkYdfCRf48hePxdjGcAkmxH40oLfGz9kaSL9gOfx38f2iR14asOAGfgOWhthsgaKrMqZ+OqphqZmdwa+Y//F+CFLkzkAfwPgQZosb0iI2f6uih61NKOt8dXTV1BnwCz6Aa/iO/ZbRI9amlGIyYI+Fj3qRNbGMvZ5DtYClPFP4nkaX309MX7IpfcZfMf8yfghS5PaBl9foRqWW6BP7MBT+BH+1tK3o0ctzewr+OrrJKB39KjLqxc2AYvnmJ8RO2hpar/Bf187OXrUkW2AP+Xv68Cg2IFLU9sAfwv/M9GjLq9T8R3rJcB60aOWZhbi3jaZir8F+AX+VtKx0aMW8Sf+mAWsEz3q8lkLS6LkOdbKwigpfA///e1T0aOOZCNsWJTn4DwG9IgduAjwXvwn92+jR10+V+E/zvtGj1oEhuKbtbJGhT8XXoZObCmvFmA8vvrbRhOO+W3AfvivEU/TZEOqpFC+gL8OV2664JHAQnwH5Z7oUYss7yj8J/dr2GtuWd4I4GX8x/eI2IGLdNIXfwfW54CekePO1SX4T+w9YgctsoJewAv46/LtKINlZ62EGUv9PBW7cEopHYEasv+1NjAP38HQlJ5SFMfgP7lrwJdiB15gXyXMMT0yduAiXWjF8lB46vJ4KtLf7UL8J/bu0aMW6Vor8Aj+Or0U+FDk2IvoYGzYnvd4PobeqkhxfBx/nS59dsChwBx8B+H26FGLrFqIEQE1bDrRPeKGXih74x873bGog7AUSQ/8nYafouSNWm8GtRqwW/SoRbr3Z8LcuGYB20eOvQi2xj8hWMfyx8ixi9TjSPx1++DoUQfSB5sIxVP4W6NHLVKfkfjfbnUsbwLvjht+UjsAUwlz7GajrH9STD2ACfjq912xgw7lePwn93uiRy1Sv88S5iZWA+YC/xM3/CTej5U11HH7dNzwRRpyHP46/s7oUTu1YN8vPIW+OXrUIo1pAW4j3M1sEXB41BLEdSRWxlDH62aU9EeKrRc205+nnv8qdtBeB+A/uXeOHrVI49YDphPuplYDLqZak4L0JUwukM7Lm8C6MQshktGn8dX1hZQsedit+Ap8R/yQRTLbH0vzG/IG9zCwScxC5GQU8ABhj00bJe4cJU2nDzAFX50/O3bQWW2O/2J4QPSoRXzOJexNrobNincC5RwK1AN78plF+OPyzYjlEAnhc/jq/OuU5K2g91XfBMp5wZPm1gP4O+FvdjVgHDA2XlHcdgAeIp9jcQO6Pkj5DMQ/zfXR0aNu0BD8Q6PUq1fKaiDwb/K58S0BfgpsEK00jRsFXIplOczjGDwCDIhVGJHALsBX/x+n4J1eT8NXwOnoBJdyGwm8RD43wBrWi/5yYNNYBarDZsAvCdvDf8VlIur0J+W2Af6013tGj7pOLcAz+Ap3bvSoRcLbDHiV/G6GNexCci1wENA7TrGW0xvriHcdYXL5r2p5hWp0iBS5Ft+5cG38kOuzF/4nm5HRoxbJx1bANPK9MXYs07Chg7uTb2OgDzZ3wY+xYXgxyvY6sEWOZRKJaTd858NiCjok8Cp8Bftd/JBFcvUO4GXi3Cg7lrewBDlfBHYFVnfEvwaWjfNLwC3t245ZlinYqCKRKhmH77z4QqhAQnUoWAM7WT3DFHbCDoxI2Q3AWumDsTSePwJ6JoznTezz3LPtf5/bvsxq/++DsZgHYA2GTYHR+BoPXkuAk7B8CDOB17AGiEjZHQH82rH+BGAM1hhwCdUAOB34jmP9u9Gsf1I+awPbti/bYSflSGw0jIQ3A3vQeBp4rH15FGsciJRFR3pgT6fWXYF7w4Tj04J/xqNDo0ct0ritgDOw8f6vEfd1uJaVL68CN2IPIluu9NcTKY6z8NX5X8QPuWvvwVeQ17AWkUjR9AP2AS7ChqGlvtFpqW+ZCPwM+BCWm0GkaNbCN2x2LgWp25fhO1nPix+yyCqNxW4gIaet1ZJmmQ9cjTXkRIrkOnx1+7j4IS+vH/ZdzlOIMdGjFnm7QcDx2Dfl1DctLfksT2GfcIYhkt7++Orzv+KHvLyP4yvA3fFDFlnOWtgr/thD3LSkW+YCPwDWRCSdnviHCW8dPepObllJUPUuR0WPWMSsjk2xOZv0NyQtaZa3sMafGgKSyjn46vAF8UM26+JLATob6B89aml2Q7DpZHXj19KxzMIag4MQiWsjoI3sdfdVbCbS6D6fIdjOy8/jhyxN7gBsHHnqG46WYi6vYiMHRGK6E1+9TZJDx5vOcKf4IUuTWgu4hvQ3GC3lWG4A1kMkjsPx1dcfxQ7Y+9ri6dgBS1NqwdJuxpq4Rkt1lpnAKUArIvnqB0wne12dSuRU419xBFsDTosZrDSlocDfSH8j0VLu5QaU2lnydwm+erpXzGD/7Qh0ETA8ZrDSdLYFniP9zUNLNZZJ2KROInnZBV8d/WmsQDd3BnpTrEClKX0cjenXEn6ZDxyDSD5asIZm1vo5jQyfAbJ8N/hghnU6u8a5vkhXegA/BD6dOpB2b2AnZce0u3Pa/z4/ZVAl0A+blnggy6YpHo5NOZ5SX+BybNbHzwFL04YjFVMD/gScmnH9NbDPALcEi2glHiJ7K2Uxev0v4fUG/kiaJ8MFwF3AucDRwM4o1WweVseO7dHYsb4LO/YpfvOrsTonEtK78NXLy/IOcD18vf9zb51I01kNm5435g3gIeBbwN7YE6uk0TFb4znAw8StAzei317CagFeJHudnE7ODdPPOoKrYZOtiIQyALidOBf8l7G0sdtGKZlkMQbL6PcCcerEP1H2QAnru/jq5H55BneHI7AlwIg8g5OmMgR4kPwv8jcD+6Lx4GXSil0IbyX/+jEODROUcN6Jrz5emFdgw7Bv+FkDuyOvwKTp9AZuI7+Lehs2/lvZKstvW+ybvefTZXfLP4A+sQoklfcs2evic3kF9TFHUDXgxLwCk6bSAvye/C7mtwNbRSuNxLI1/pzrq1p+i9VNEa9z8dXFTfMI6gpHQEuBtfMISpqO9xvZypZXsbTBuohX2wHAZPKpQ+dGLIdU13b46uEpoQNqBV53BHRn6ICkKZ1E+It2G3AxNuZcmsMQLPVqHp8FTohYDqkuT1Kgm0MHs5MjmBpwcuiApOnsiq8PSlfLTOCwmIWQQjmA8BNFLQbeHbMQUkk/I3sdXICNkArm645gatjsgSJZDcE3PrarZRywYcxCSCGNBO4lbN16CSWDEp+D8NXBA0MGM84RyISQgUhTuoawF+iLiTx9phRaL2wylZB17KqoJZCq6Y+lDc9a/4JNDjQEG8PvudiKZHU8YS/M58UNX0rkDMLWNU0eJB43k73uTSZQh+ZDHUHUgP1DBCFNaQzhZvZbAhwXN3wpoRPxPfB0XuYCm8UNXyrkFHz1b+sQQfzYEcBCAndGkKYSKs3vEuBDkWOX8voI4RoBmv9EstoIX937XIggxjsCUPY/yerDhLkAtwHHRo5dyu9ThKl/NeCQyLFLdUwge727zrvzdR07rwFf9AYgTWk1YCJhLr5fjhu6VMjXCFMHJ2F1WqRRF5K93r2Jcw6TTzh2XgO29+xcVMsHvAAAIABJREFUmta3CHPh/WHswKVyfkKYunh25LilGvbFV+9cac0vdex4KppBTRq3MZbIwnvBvRsN9RO/XsD9+OvjPGBU3NClAvphfemy1ruTPDt/2rHj33h2LE3rMvwX2zeBDWIHLpU1EngDf738SezApRI8iar+kHWna+DLlf2JrDuWprUuvtZuDauzQbNgiQAfwD93wAI0KZo07ttkr3OvkjEfwCGOndaA9bLsVJra+fifsn4QPWppFj/CXz+ViEoa9V58dW50lp1e4NjhpCw7lKY2FJiNr6K/gmb1k/wMAl7GV0dnYdlVReo1AN9EaCtNgLaqTnq7OAL+l2NdaU4nAwOd2zgFu8CK5GE2cLpzG4OwbIMi9ZoLPOpYf7dGV+iDryf2KY5gpfn0AKbge7IKPge2SBdasARnnro6GY2QksZ8j4hv5Hdy7KwG7JipiNKs9sZX35YCm0ePWprVVvg7BO4ZPWopswPx1be1GtnZZxw7mg/0zlpKaUq/xFe5r44fsjS56/DV2cvihywlNhR70Mla397fyM6ucOzo7sxFlGbUF5iJ72I6NnrU0uy2w/cWYBaW5EWkXo+Rvb6d1dUGV/YdyvMK/37HutJ8DsLXc/9vwMOBYhGp16P4ZvobRINPZdL0HnCsW/dD0iB8rxoOdQQpzefP+J7+94gesYjZC1/d/VP8kKXEjid7XZtc7052d+ykhjJdSf16Yq9Cs9a1F8mY5UokgBbgBbLX35nYCBiReozFd29+W0fArj4BbOMI8EUs9aBIPcZib5yy+jVWsUVSqAFXOtYfDGwbKBapvsexVOlZvW123tANAM83Cmk+ezjX/32IIEQcfu1cf48QQUhTWAQ84Vj/bf0AumoAeFqk/3asK81nd8e69wETQgUiktEE4EHH+soHII3wdHjutgHQE3iHYwee1ok0l5740k3fFCoQESdPXdwV9QOQ+gVtAKxoS3ydDEY5gpPm4u3Qsmv8kEW6tAe+urxd9IilrN6Jr64N77yxFd8AbOkIbA6aBVDq53nTNA8YFyoQEaf7sDqZldJYS73+g68j4JjO/2PFBoCnIj6BemRL/TZ1rPtPrEOMSBEswhoBWW0WKhCpvEXAk471c20AiNTLc9HTdNNSNGoASCyezvZqAEghjHasOz5YFCJhPONYVw0AaYRn9NNyda1zA6AHsIljw2oASL1a8NU1z8VWJA/eBoAyWkq9PA9AY1b2HzbF17twhCMoaS5rk72etQH944csskoD8c0OuGb8kKWkNid7PVsC9OnYUOc3AJ7XUFPbF5F6DO/+n6zUFOCtUIGIBDIHXxp0zzkhzeU5YHHGdXsAG3f8j84NgI3f/m/r9rhjXWk+azjWVUNTiup1x7qrB4tCqm4xMNGx/n8/A3RuAGzk2KA6ZUkjhjrWnRMsCpGwPHVzWLAopBl47rn/7YAd6g3ARMe60nz6OdZVA0CKylM3PeeENB9Pp9PgDQBlAJRG9HasqwaAFNVsx7qec0KaT9A3AC348virASCN6OVYd26wKETC8jRO+3T/T0T+y/MGYGTHXzoaAGvjewWlBoA0oqtpqOu1NFgUImF56qbnnJDm40kGtBY2G+t/K93Ilf/bbs1HPbNFRERimQYsyLhuD2AdWNYAWM8RyCQ0CZCIiEgsNeBlx/rrQbgGgIiIiMQz2bHucg2AdR0bmuhYV6QoRgDfAB7COnPNx76zXQJsmTAuyWYr4CdYZ6l5wCzgQeDrKOueVMMUx7p6AyDS7gjgeeAsYCwwAOiLzY9xIjb95vdp7zgjhdYTuBB4DDgBS3HeDxgEvBP4KvACcHiqAEUCCdYA8LwBeMmxrkhqJwO/xm76K9MKnAZch4ZrFVkf7Df6HKvuVT8A+A3224uUVbAGwFqODU10rCuS0o7Y02K99gf+hBoBRdQH+232b2CdC7G3AiJlFKwB4Pkm5pkBSySlb9H4a/0PoEZA0XTc/D/Q4Ho9sTogUkZBGgC9gSGODU1zrCuSyghg74zrfgD4M9ZPQNLqDVxN4zf/DvtidUGkbDyjANYGWluxyt+ScSOLUWpWKaex+LKvvRf4I3oTkFIf4FrgQMc2WoHtwoQjEtU0YGHGdXsCQzoaAFlNR0mApJxCTL+qzwHpZH3t3xVNxStlVAPecKw/pBVYw7GB6Y51RVIKVXfVCIgv5M0f4M1A2xGJbYZj3aGtwOqODXhaHyIpPQS0BdrWB7DPAcoTkL+e2LEOdfNfCjwSaFsisbkbAJ4OgGo5S1lNA24NuL39gXMDbk+69l0aG+rXnVvQg4yUl7sBMNixATUApMzOApYE3N6pwDsCbk+WtyXw2YDbWwycGXB7IrElbQCoD4CU2YPYTTuUHlj6WcnHCdgxDuU09Ppfyk2fAEQcfkTYp8B9Am5Llhfy2J6J/fYiZaZPACJO5xCuETAy0Hbk7TyTlnV2Jvabi5SduwEwMNHORYrkHOD0ANtZLcA2pGv9Amzjq+jmL9XhbgB4LlhzHOuKFM35hGkESDF9Ffhm6iBEAprpWHdIK75W9SLHuiJFpEZANenmL1U0y7FuP+8bADUApIq+nzoACU6v/aWKss4FANBLbwBERETKabFj3d5qAIiIiJST5x6sBoCIiEhJuRsAvRwb8Hx/EBERkew8nwB6teJLrak3ACIiImm43wCoASAiIlI+agCIiIg0IX0CEBERaULuNwCtiXYuIiIi2bkbADXHBjzrioiISBotrThbEKEiERERkYb0cay7VA0AERGRcvLcg9UAEBERKSnPPXiJGgAiIiLl5P4E4BpH6FhXREREstMnABERkSakTwAiIiJNyPMJYJ4aACIiIuXkuQfPVwNARESknNwNAE8nQDUARERE0nB/Aljo2MBqjnVFREQkO/cbgDmODQx1rCsiIiLZDXCsO78VmO7YwDDHuiIiIpLdGo51Z6kBICIiUk6ee/DMVmCGYwP6BCAiIpLG6o513Q0AvQEQERFJw9MAcH8C0BsAERGRNNxvANQHQEREpHyS9gFQA0BERCQNzz14ht4AiIiIlJNnGOBUNQBERETKpxUY4lh/aiswG1iacQN9gIGOAERERKRxQ4AeGddtA95sbf+Lpx/ASMe6IiIi0jjPG/jpwNLW9v/ximNDagCIiIjEtY5j3dfBviEAvOTY0PqOdUVERKRxGzjWnQrLGgCTHRvSGwAREZG4RjnWnQJqAIiIiJSR5w3AZNAnABERkTIa5VhXbwBERERKqjBvAFoc64uIiEj9WoD1HOsv9wbgZXzJgIY7AhEREZH6rQ30daw/BaBn+/9YjI0LzDqucCTtwwpEctaH/Kehbu3+n6xSjGmylwBzIuynO72B/qmDqMNQLOlZnvrkvH2RDqMc684B3oBlDQCwzwBZGwAbAg87AhKp1zHtS1F559doxFvAncClwF8i7RPs1eNpwEHARhH36/FG6gBEAvJ8/3+h4y+dn3Q8HQE3d6wrItn0B/YHrgduxDcxSL2OASYAp1Kem79I1YxyrPt8x186NwAmOjaoBoBIWu8DbgdWy3EfnwYuB/rluA8R6V7wNwDjHRtUA0Akve2B83Pa9pbARTltW0Qa47nndvkG4CnHBseQfVpCEQnneHxPBytzNsv3GRKRdLZwrNvlG4CngFrGDfbF901CRMLoCRwSeJv9gQ8E3qaIZLMOsLpj/Wc6/tK5ATAb37TA73CsKyLhbBN4e6PxjTkWkXC2dKw7j04d/lcc7/y0Y8PqByD1Wpw6gIobFnh7gwNvT95O54TUy9MAGE+nfBgrNgA8/QDUAJB6vZ46gIoLfXynBd6evN1rqQOQ0vA0AJZ7yA/5BkCfAKReD5A99bR0777A2xsPzAi8TVlmKXZOiNQjtwaA5w3AO9CkQFKfqcCtqYOoqNmEzwq4BLgq8DZlmZvRWxapTyu+h+1VPuSvgY0EyLps6AhMmsu2wEJ89U3L25fTG/kRGrAO9hYgdfmqtiwAtm7gd5DmtjG++ja6ux1MdWz8w0GKKM3iaOz1Z+qLcFWWa/BPZLQq+2E3rNTlrMqyFDiqkR9Amt5BZK9vc1nh+tDVxcLzGWBHx7rSfH6JjVlXByifRcC5wEfJd8a7W4A96ZRJTDJ7DTgY+FXiOKRctnKs+zgrXB+6yuz1GLB7xh3skHE9aV5/Ae4AjsAmttkQWDNpROUwF5vB807sJhLrpnw/9g3yo9gNbDT2e+X55qEqXgdeBG4ArsBmcxRphKcB8J96/tHHyf6K4S2ULlRERCQPk8l+fz6xnh1s6thBDV8LRURERN5uXXz35nevuMGuXts9B7zpCFL9AERERMJ62w28AW1YH4DldNUAqAEPO3akfgAiIiJheRoATwFzVvw/V9Zx50HHjtQAEBERCWtnx7pdZprMowGwFdDPsb6IiIgs0xfYzrF+Q/f0tfB1NvC0VERERGSZXfHdk7tsPKzsDcBrwBRnsCIiIuLneaheADzR1X9YVfKOcY4d7ulYV0RERJZ5l2Pdh4HFXf2HVTUAPP0AdgN6O9YXERER4xkBcPfK/sOqGgD/cuywP8oHICIi4rUh1i8vq3tX9h+6awDMd+x0L8e6IiIi4ruXtgH3rew/rqoBsACb+CMr9QMQERHx2c+x7hPA9JX9x+5m8LrDseN3A6s51hcREWlmPYC9Hevfs6r/mGcDoDe+jgsiIiLNbCywumP9lXYAhO4bAA8Csx07Vz8AERGRbP7HsW4NuMsbwF/Jnn3IM5JARESkmd1D9vvvf7rbeHdvAMD3GWAsMMSxvoiISDMahG84/W3d/YO8GwA9gfc61hcREWlG+wC9HOvfHiKIFmAa2V9D/D5EECIiIk3kp2S/7y7G3iAEcY0jkJkoLbCIiEgjXiD7fXeVw/861PMJAHyvEgZjcwOIiIhI9zbDUgBn9fd6/lG9DYAbsVZFVgc61hUREWkm73euf2OQKDp5hOyvIyZhfQlERERk1e4l+/32Feq839b7BgDgLw382xWtD2zjWF9ERKQZrAu8y7H+36nzjX3PBjZ6PfC1TOGYg4DHHOuL32Ast3QNm+lxQdpwMusHLMF6upZdL2Ag1lm2LfK+RwADIuxnDjaSSLo2ADsvZ0Xeb2+sDqTupL0UmIpv9tkqOYzGHs5XVNf3/yxeJPtriYfzCkr+qzfwHuCzwCVYIoiXsHTOXf0mC7Gepv8ELm9fbzfsBls0uwJXsvyQ1BeAi4GNEsaVxWDgLCxTVxvLhu3cB5xIfhfkVuBjwK3Yb5/1XM6yLABuBj5Mfp8DW4BDgGuBl7Fj+jp2QTwC35jq0LYHfgO8yfIjpq4Cds5xv2sA5wDjifv717O8hJ3Po/IqfEn8k+zHcBF2fcnFxY7AauiHzcNGwBnYxfUtwpyI87HGw+n4eqKG0Bf4FauOdyFwWqL4GrUHdlNaVXmeBkYH3u9a+NKKhlzuAoYHLt96dZTvcWCLwPttVA/ge9hT76pi/SnhG4IHYI2M1L9/d8sCrCHcjNai+7qxquWmPIPb1xFYDTglz+CayCDgWKyl2PEEmdfShs3pcALQP0bhOumJVeh6Yz07cnyN2p36n7ynEa7xNRR4ps79xlqeItyTyrrA5Dr3OwPYMtB+s7hsJXF1tVxDuLclB+G7saRYytKoD+lkfMfsU3kG1ws7gbIGNy7P4JrAGsA38P0GnmUG8F1gzbwL2u7LDcbXht1ki2gg8BqNledfhLkBXNXgfmMtvw5QthbsjUIj+30O+z1i+1iDcdYI8yS8Jta/IPXv3eiyBPtU0kzuIvvxWgqsnXeAVzoCrBH+1WYzGAh8B5hL+pOy1h7Ht8jxWxP2liPLRWuV818n1GhjpmPx5tDYivzfEnkuWGOc5Xt/xn1f7txvo1qAZzPE+Sr+vgvfz7Dfoiye0WdlsybW6Ml6rOrK/ueVpRXbefl6jCAr5AAsj0LqE7Gr5TWsc1UePpwxpjbslXDRPEq28vzGud9vZNxvrOVMZ/l+69j3Ic59N2KsI869nPt+ybHv1MtC8n3QKJJP4ztWn48R5BCsp2HWIJ9HSYHqsRbLxnMWffkb9p05pG874vFm0QqtFeuRnqUs3c7p3Y3rM+431nK1s3ye3uzTiPDKtN1RjjhPdex3mGO/RVk8Y+LL5HZ8x6nh0VBZxhrOxHqcZ7UR+Q5zqYK9sSfGskyl/H4sc1XIRsAajnVHBIsijKE0lnOjM29ZVneunzdvnfHUkzWAXxDngcQz6sGzbhWenkM/XBTRWvjmzHkQGxbdkKzJBn6Xcb0OH3euX2VnAbdgFaJMNseG64XiSYTRI1gUYXjK4lk3xPp5m+pc31u+9wInObdRj1R1oAoJmF5PHUAER5L9IQGso2/Dslas6/Flrfoo6bNPFU0P4GfYN9uiX7RX5kAsEZFIve5LHQBwPtZZsormYvkPymoO8GTqICI4yrFuDfhjlhWz3mjmA3/OuC7Yd6n/caxfNX2A3wPHpw4kgMNTByClMQ/4U+ogsGRTv6a6DyXejqQpXYV1BKyyXfGNhrkH6+jZMM+Tpj4DhNET6wj14dSBBKL+HVKv72IjSYpgO6o7QulHWBr3spmFvRGtumOc6/8h64qeBsAd2LSDWR2IjShoZi3Az/GP9S6S0ClepZpuwHJJFMnpWKrmqpmPZQKckTqQBizEhpxPSR1IzgYCH3Ksv4SMr//B1wBYSsaOB+36kd8Y8rI4Bzg6dRCBzUwdgBTaYiwX/qHYNaRIWrHX5VXsdf44NpyuDJOyPY/lPshtVrsC+Qi+GTlvwtFJ0tPrEOwzgCdf84ksm2Co2RwEfDHyPjumnO2P9TvIwyM5bVfie4UwU0a3Ya/6/4F9a382wDbzsh5wEdV8OJkA7IC9cfwgsDX1pUQeSvZG0Qzqe/MwH8vp8BfswXJRxv2Vjff1f4h02i6P40tesEf0iNPbAJhOfokz5gI3Av+H5RQY2UUM/YH1gfdh39luI8xsgqE+ZzQyacqKyycDxRDKcLKXxTtM7j7HvsvQnyOv8+ijgeM8wxHLeYFjadRZZI+9Gb7hZzUaX5ru6Tgf5LxvAMDmBjjHsf6J2AQIzaIHdszyeM14F5bj/DrsZr4qb7UvL7HsVdtg7LvbJ4F3Ztj/A9i3XZGy+wnWeMrUu1qkDsfiS0LlHiERYrz577DWSFaHUL6kNx4nEP7J6lbg3cCeWG707m7+KzMLm4d8B2xoyoMNrPs69tTkqQsiRTEE6w9Q1pwcUmw98Q+Zdr/+D1G5J2Gvj7PqRfFe2eZlTcL2fH4F60G6H3B/wO2CpfbdCctQ9XI3//Y/wC7AxMAxiKS0G3BK6iCkkg7G9+D7FPbG1SVU6/YnzvU/RfHSt+bhfMINffw7sA2OISB1qAFXAJtiM02NY1nnnPnYUNCjsZnOns8xDpFUzsU6y4mE5Ok8D3BpiCBCNQD+gr0JyGok8IFAsRTVaMIlP/o+drzeCLS97swHLsDeCPQBBgGrYR0Mf4WNRRWpoo4snX1TByKVsQO+z8ALsU+9bqEaAEuxWbU8TgwRSIF9kTDH+8tY7/6U39rnJNy3SGxbULykRVJe/+dc/xoCPfyF7OByGZbkI6v9gI0DxVI0I4H/DbCdc9sXEYnrVCw5jYjHBlgSLI8gr/8hbAPgFexTQFat+L+LFNWn8U80cg3wlQCxiEjjWrH+MMNSByKl9ll8w+/HA3cHiiX4EBdvZ8BjqN6QwFb83/6fw8aMaoidSDrrYnN3iGQxEP+It0sIeB8I3QC4HRuekFVf4KRAsRTFXnSdia9eNWya4NlhwhERhw+imUwlm2OxZGtZzSFw6t88klx4v0+cRH35qcviY871fwfcGSIQEQnix9i3XJF69QBOdm7jFwR+EMyjAfArYJ5j/aHAcWFCKYS9HesuAb4aKhARCWIwNgyrGXKXSBiHABs51q9hr/+DyqMBMBPfNMFgPW69neaKYBN8Twq/B14MFIuIhLMrlhxLpB6nOtf/GzabY1B55bk+H5vlKKv1qMZ3Ns/TP1hefhEppm9hSV1EVmV3bK4Wj4tDBLKiELMBdmU81mI5wLGNM7AOD56GRGqei8OzwL9CBSKSwS/IPrEUWF6Q17BZ9a4CJocIqkB6YdeosVi2TJGunO1c/3Fswrfg8moAgE0R7GkAjG5f//ow4SQxxrHuDWjYn6Tlqb+dHQx8E/gBcCbFSR39MHbz9tgcOA9NGiRd2xPYw7mN88npXpDnVJcPAPc4t/HFEIEkNNqxrnr+S5X0wd7q3YA9ORfBUcCMANv5DPD+ANuR6vmac/0pwB9CBNKVvOe6/q5z/XdR3hNrGLCGY333VI8iBfRe4Dupg2g3Bbt5e7Vgw59XD7AtqY69sO//HheybAbW4PJuAPwVeMK5jXPJP848rOlYdzowLVQgIgXzGWyK6SL4HXBlgO2sg82HItLB+/Q/G7g8RCArk/eNtYZ9v/DYGsu+VTYDHOu+ECwKkeLpCXwidRCdnAi8FGA7B2OfFUT2AXZzbuMnwKwAsaxUjCfrK4FJzm18i3w7LObBk81QaX+l6rwXx5BmAYdj05p7XUxx3m5IOt4EbvOAC0IEsioxGgCLsd6/HpthJ2iZ9Hes6xl6JVIGRZv0627se6vXACwbqrIENq/9gPc4t/EzYGqAWFYp1rf1S4E3nNs4G+tJXBaejhtVyIIosipFfMt1JvDvANt5N+UfwSTZneVcfyHw/RCBdCdWA+At/JmMNqBccwTMcazr6T8gUgaeWUPzshD4X8Ik9Tkb2CnAdqRc3o+lifa4DHg5QCzditm7/gL8rzS+DKwWIJYY5jrWXTtYFCLFdG3qAFbiKeArAbbTE5swSI355tED/xDXxfg7ztctZgNgLv6CrU2YcbsxzHSsuwHQN1QgIgXzMJYQqKh+APw9wHY2wZ8LRcrjBGBL5zYuw99pvm6xx9f/GP+rjdOxJDtF9zKwIOO6PYAtAsYiUhSzgSMpdprrGnAs8GaAbZ0A7B9gO1JsQ/Dn/F8AfNsfSv1iNwDmY0P6PIYBXw8QS96WAs871t8jUBwiRfESVq+fTBxHPV4Bjg+wnRZsUiVPYjApvq/iy/wK9oA8JUAsdUuRYe9yfDdGsMQdWweIJW/jHevuFywKkbSew3pGbwE8mjiWRlwLXBFgO8OBTwfYjhTTxvh/37kk+FyUIrnOYuwJ3nNi9cDG7O4dJKL8PE72LIZ7YWOlXwsXjkhDjsbqcFYd0wHnPp45Rydhw/o2cW6nTEOYpTHfx//7Xki5z5OGtAKPYd/aPMuhsQNv0G74yveF+CEXxmVkP26fTBDvqgwne1m8F4X7HPve2bnvGKaTvXxD6tzHLtgUxt7rVdblvMYOSXBnkT32bySIN6Y98f++b1J/XQwq1SQ7bYT5jn8hxR4W+C98Wf1ORaMBRFK7F/Xml7drJcyQvW/iGzWWWcpZ9q7DP+Xt+sDnA8SSl0XYE1hWa1O8p1mRZvRVYFzqIKRQjgHGOrfxIjbpTxKpp9k9M8A2zgBGBthOXq5zrv8N7BWyiKSzBBu+OC91IFIIg7And68vYRkok0jdALgNf0KQ/hT79dwf8P3Aw4gwK5SIdGs8lodE5Bz8E1qNA64OEEtmqRsAAKfhbwF9BP/sS3mZDvzVuY3DsacPEUnrEuBvqYOQpHbEhqJ7fR7rBJhMERoAz+GfLrgF+DnFHWpzeYBtXEL6yUV6AB8HbsU6rdSwV6L3YsOlPFMgi5RBDfv2+3rqQCSJnthUvd7pnq8B7vGH41OEBgBYdsBXnNsYQ3Gn4LwJG/bosRr2JmGMP5xMNgLuxyY42QcY3P7/98PGSf8Im0p1xyTRicQzFfhU6iAkiTOAbZ3bmE9BPiUVpQEwlzA37y9TzBz6NcLkeF4D+Af+nqeN2hi4C9ihjn93G+nfVIjk7XrCvNmT8tiUMDNFfheYGGA7bkVpAIA9WXpfifTGTkrv65k8/Ikwc6CPAO4ke4bBRm0A3EH9Iy0GAleizwFSfacAE1IHIVG0YJ9h+zm3M5mI0/12p0gNgBp2QrU5t7MTcLI/nODasPKFMBD4I/baPc8b7Rjs5r9+g+ttCBwXPhyRQnkL6xOzOHUgkrujsE+fXp/HlxwuqCI1AAAeAX4dYDvfxr5ZF81t2LDAUE4CngYOw1qoIR2OJWrKehz/N2AsIkX1EHBu6iAkVyMI89R+J9b5rzCK1gAA6wswy7mN1YBLCX9TDOE0bE70UEZileox4GP4R0Lsiz31/wZLdpHV1qSZbEoktm9iab+lmi4EVnduYxH2wFYoRWwATCVMhqW9gCMCbCe0V4ATctju1sDvgVexYSoHA0PrWK8F2BL4DPAwcAs2wYVXH4o7LFMkpCXYG7M5qQOR4N5LmLeZ52NvawulqE9oF2FPs97e7hdgQ/CKNmb3SmAP4Pgctj20fbvHA0ux3qYTsM4nM7CW6GBsRMFwbEhLHqmG5wMLcthuPT6I9dht1BzgJexTzatBIyqnw7EZLb3asGmB/4Ed3yp6Hvg/rPEt1TAUyy/jNQl9JmrY9ljnGu9Ui9fGDrxO/YBHSTfFaN6Ld0SHZzpg77IU62QZqh9JWacDzmO5GXtbFUqM6YAbcb0jnpUtmg44jT8Q5vf7QOzA61XETwAdHgG+H2A7hwDHBthOaPOxijExcRx5+VXqABxasbcIDwG7J46lavbDOpd+OHUgOTkWe9sh5XYMYeroNRQ4dXSRGwAAXyPMd5MfAKMDbCe0V7BOd0X7ROH1FJbXoeyGAn8GNksdSMX0xepHUefv8JiGDRmrJY5DstsIf3p6sLdTnwmwndwUvQGwEJt0wXsy9cc6yPV2RxTec8D+wJupAwlkFvBR0n3/D20I1idFwuqFjdQpaj8kj5tRX4Cy6ok1TgcG2NapFPzhrugNALCOQ5cG2M72wNcDbCcPD2FPQ2XvILUIy0nweOpAAnsv6eZgqLLR2LGtos8Dz6QOQhrp8AhaAAARc0lEQVR2FrBzgO3cjg2lLrQyNAAAvgBMCbCd07HhgUX0NLAL8GTqQDKaDxyE9aCvoqreqFKr6nGdhw0fW5Q6EKnbDsCXAmznLWwUVuE/A5WlATCbMGPnW4Er8Cd1yMsU4F3A71IH0qCZwPuxIZdVtUHqACpqw9QB5OgRwuQ0kfx1zGHSK8C2zgBeCLCd3JWlAQDWkzJEGsV1CTO2My9zsfHXR2JPEUU3AZsO+K7A2y1aUhVPa95TFm/WyLnO9fPmfUrKWr42x7qN+Db2GdMjde54T/0t2nm8Mj/EZjP1uhv4SYDtRFGmBgBYj8oQneUOxYZ5FNkVwHbArakDWYXfY6/N8shwNTGHbXpMdKy7gOydgTz7DbF+3iYlWn8KlsEvb23YtcZzI3wxUCxZeX6jiaGCyNFHsZEbXrOAT+Cf0E5W4RDCJGeYA7wjcuxZfRi7YKVO4tKxvIqlGs7TZgUoZ+clS2bBzn6Vcb//59zvoRn3G2vZ31m+r2Tc70+d+23U0RnjXAysHTnWFQ3GRmQ1Gvsi6ktHntJo7MYdoi4fGTn2pvVzwvxgz2CVuwz6YHMbPEe6i/VbWFayPDKodeWGCGWqZ/lzgLJsjWUYbGS/M/D3V+mFfaZJfQy7WsbjHwY4AvtM0sh+l5Cm8f+nBuOsUZx8GpfQeOxFHwo5EMtZUpRrhNSpP/baOcQPdz3FnDVwZXoDn8SyqcW6UL8BfAdYK0L5OtsY++ST8ib1BuE6qn2/wX0fFWi/exMmrXbIZRFh5hkA+FSD+/5WoP02anUaa4y9CqyTJNK3WwN7nV9v7C9hjbOiasH6lIWoy1OBNeOGL9uT7bVUV8sXI8ceyhjgHOBZwl+gF2IJTY7G5i1IZWfsBEtxk3qdMGOCO/Sgvk8BbYQZjtTZ4VhfhBTHccVlPvCRwOU7Cztu3e37Z6Tt+7QR9d1IX8X6ABXJFtQX+0vAVmlCrNsZhKnLbfg/Y0lGoX7EpZR/PPL62BPjFVginkYv9ouwtwo/xC7ORfo0sh6WVCPWU+xi7Dium1N5jsA6VnW170exJ/Y8bA/cuZL9xlpuBbbJqXz7Af9eyX6fxzp7FcEg4MfYJ7WuzsNfk/67/8oMx/pPLKLr2H9OsZ/8waY7D3Ut+WHk2IMq06vvrrRiF5QQyX2mA+8kfY/bUHoAo7DOdEOw711DsL4Ei7AhUG9hrfWJ2HTBixPE2YjVsWmUR2LlCG0hdhzuxOpDnlqBnbCnvCFYDvn7gSdy3i/YU+h7sEZj/wj7m4vVs38Sp1f4VtixXQPLUfEI8CB2wS6SQdhcIKOw+RGex+peodPHthsC7IPlx2jBftfbsX4rRTYSeJgwU6A/AeyIvdGSRNbFvtOGaM09StrX3SIiko9e2DTlIe4V8yn+Z46mEWpoYA179SsiItXyE8LdJ46PHLt043LC/bjHRY5dRETycxTh7g9/iBu61GMA9k0mxA+8gHBDlEREJJ33EG4EzASs74YU0KZYp58QP/SbWJYoEREpp42xDrYh7gnzKd7QTFnBgdQ3Hrie5QWKP6RFRETebg3CZsE8Kmr0ktm3CfejjwNWixu+iIg49AXuJdx94NK44YtHK/B3wv34V1O+mRNFRJpRK+HS/NawvAEaHl4yw7BX+KEqwblxwxcRkQy+S7jrfsi5QCSybYF5hKsMJ8YNX0REGnAs4a73S7D00lJinyBchViEKoSISBG9l7DzhXwubviSl58RrlLMxGbhExGRYtgWmE246/xv44YveeqDTbQSqnI8huWVFhGRtEZjEyiFur6PQ53+KmcN4FnCVZLD44YvIiIrWB+biTDUdf1lbPpxqaAx2DSvISrKjZFjFxGRZdbBplAOdfOfB+wQtQQS3Z7YvO/eyvJG7MBFRASwN7pPEu7mvxQ4OGoJJJkj8acLXhI9ahERGQw8RLibfw34QtQSSHLfwFdhXo8fsohIU1sN+Cdhb/4/j1oCKYQWbKhH1krzt/ghi4g0rd7ATYS9+f8V6BmzEFIcfYB/kK3i/G+CeEVEmlEv4AbC3vwfBPrHLIQUzzDgGRqrOA8DPVIEKyLSZHoRdnKfGjYkfHjMQkhxbQJMpr6K8xqwcZowRUSaSl/CP/lPxa75Iv+1Pt1nC3wI2DRVgCIiTaQ/cAthb/6zgLExCyHl0QIcBvwReyMwH8sM9WfgI9g80yIikq8hwL2EvfnPA3aPWQgRERGp3zDgAcLe/JcAh8YshIiIiNRvLeA/hL35twFHxyyEiIiI1G9D4DnC3/xPilkIERERqd9o6h+J1chyRsxCiIiISP22xVKrh775fylmIURERKR++wIzCX/z/1rMQoiIiEj9PgksIvzN/3sxCyEiIiL1aQHOJvyNvwZ8J14xREREpF59gCvJ5+Z/XsRyiGQ2GPgU8GvgVmxKynOA7VIGJSKSoxF0n25dHf6kslqAzwCzWXlF/iuwTqoARURyMAZ4nvA3/jbg8xHLIZJJC/AT6qvU04C90oQpIhLUHsB0wt/8l6IkP1ISJ9NY5V4MnJokUhGRMI4CFhL+5r8YODxeMUSyGwLMIVtF/y3QL37IIiKZ9aH+N56NLvOAA+IVRcTn0/gq/CPAqNhBi4hkMBL4F/nc/GehKX2lZEIMe5kG7B07cBGRBuwNTCWfm/9UYPt4RREJ4y7CnABLsMktWqJGLyKyai3AKdi3+Txu/s8Dm0UrjUhANxH2ZPg9MCBqCUREujYIuJZ8bvw14AFgeLTSiAR2PuFPignodZiIpLUF8Az53fz/AqwWrTQiOXgX+ZwcC7GhgvokICKxfQyYS343/58CPaKVRiRHt5LfifI39IpMROIYCPyS/K5nS4EvRCuNSASjgFfJ76R5BY0SEJF87Uw+KX07lrnAQdFKIxLRO4BJ5NtyPgfoGatAItIUegJfJ79e/jVgMrBtrAKJpDAcuJP8TqIacB+wYawCiUilbUJ+iX06lnHA2rEKJJJST+BC8j2h5mAZCNVBUESy+iTZ05jXuyjduTSljwFvke/JdQ+waawCiUglDMHyjeR5bepIbCbStLYHJpLviTYXm41QbwNEpDvvwzoV53lN0pTnIu1WJ99hgp3fBiidpoh0ZRjwM/K/Dj2K+iiJLCdGv4COtwGfBVrjFEtECq4FOBp4k/yvP5ej7/0iK/Vx8u90UwP+CYyJVCYRKaZNgTvI/3rzFnBUnCKJlNso4H7yPykXARdhmb1EpHn0xGbvyzOVb8cyAdg6TrFEqqEP9kmgjfxP0EnAoXGKJSKJ7Qz8h/yvKzXgD+gBQySzDwBTiXOy3oSGDIpU1SDgYixjaN7XkreA4+MUS6TaRgB/J04joOOzwIAoJRORvLUCR5DvXCSdlyeAraKUTKRJtGDf7BYR5ySejF00RKS89sSG3cW4ZrRhwwhXi1IykSa0M/AicU7oGpafYPsoJRORUDYFriPedeJ1YP8oJRNpcoOx8bQxOgjWsG+Gv8VGJ4hIcQ0Bvg8sJN7N/1pskjMRiWg/8p1eeMVlEfaKb0SMwolI3Xpine5eJ971YBbq6CeS1CDgUuK9DagBM4DTgb4Ryiciq/Z+4Eninf814HZg/RiFE5HuxX4bUANeAo5EaYVFUtgPuI+45/xs4CQ0sZhI4QzChvDFGOfbeXkOexXYM/8iijS9XYmTvnfF5SZggwjlExGH9wDPEv8C8QLWEOiVfxFFms6u2Kv32Of1DOy81lO/SEkMxFIJLyZNQ+A4oHfupRSpvj2BfxD/PK5hqXzXzL+IIpKH0dhY/hQXj0lY8iJN/ynSuF2A20hz7j4PvC//IopI3lqwrH6vkeZiMgX4HJoURKQ7PYDDgHtJc64uBL6JGu0ilTMEmwxkCWkuLjOBC4AN8y6oSMkMxBrJL5Dm3KxhHQvH5F1QEUlrG9I9YdSwUQo3APvkXVCRglsbOBuYTrrzcQr2hlCd/ESaRMdngZiZw7paHsV6GCupkDSTscAVpOmk27HMA85DM3+KNK0h2EVgHmkbAq8AZ6Eex1JdvUj7fb/zcjUa0y8i7dbF8vyn6h/QsSzBRi18COUTkGoYjTWyU3XC7byMA3bPt7giUlabY08HqS9UNeytwHnAJrmWWCS8flgj9lbiztOxsmUS+s4vInV6N3AP6S9cHctDWF+B/nkWWsRpLPYmbQ7pz5ka8CZwBupjIyINagE+hiUFSX0h61hmAJdgSVI0CZEUwdrYTXY86c+PjmU28A2sj4+ISGa9gZOByaS/sHVeJmN5Bd6FXm1KXGsCJ2K5+VP3m+m8zAO+BwzPr+gi0ox6A58CXiT9hW7FZSLwXeCdeRVemt7a2FS4d1Ksm34Ny+B3CbBObqUXEcF65x+DTQOc+sLX1fI8cC6wXV4HQJrGuv/f3v29WFHGcRx/7+5JrcBclaz8sRroLmrRjwshtFQywgorob3qwoLuCqL+Bq+ECIKCbsqrojAsCYOi8EcFUeyWmUoGmd60USva7tFdd7v4zHSmdTdnD3POMz8+L/gysy4LD+Nhnu+ZeZ7vF3gBOET722yniVHgNWBFqy6Amdl0amhlcZ7efU6N39CirB14AaGlswZ4ES2CzeOkPwn8jV5/3dqia2BmlkoXWix4jPA3xv+LOvAJ6lDorYUWuwl4EniDsLX408Qwerp1c0uuhJlZkzqBx4EvCH+jTBMn0beobcAN2V8Oy6kuYAOqPHmEsOV408YZ4CVgfguuh5lZpu4G3kLfukPfPNPEJTQZ7AYexq2Ly2YVWrfyLtobH/rzljYGgadxVUwzK6BbULez0E2HZhtjqGzqHuAxoDvj62KtMw/ViXgZ2IcqSob+PM0mrgAHgIfw9lYzK4G5wC5ggPA32GZvygNoQeFzqOLbnEyvkDVrGSq7+wrwFXqaE/rz0kycB14FVmd7ecym5+zSQtgCPA88SrEfbV4GfgC+jeI74Pvo3y17nehR/npgHXAXKgK1POSgMvAT8Dp6ZXYh7FCsSpwAWEhL0DbCZ4C+wGPJyhhKCgbRIsOTaJvk6eh3ls5taJK/I3FcS3m2ctaB94E3UY0Bs7ZzAmB5sRF4Fj3KLctNPmkcbTGLE4JTiePvAccVSgfaw74S9aXvic770GS/MNTAWuw4mvT3An8GHotVnBMAy5v5QD9KBjYEHku71IGzwDlUuCg+PxMdz6Fe8kXSDSyiMcmvpDHR96DKdXMDja3d/gLeQZP+14HHYvYvJwCWZ+tQItCPa5xfAv5Ak8lMMZw4r0d/NzrDeT36GfTEJV7QuADdF2o0tkJeT6OdbDyxL0Lf0pPH5HnVOzWOAweBt4GP0P+fWa44AbAi6ESvCPqBnWjtgFneTABfom/771HNVztWIE4ArGg6gfvQWoGnUJ0Bs5COowl/L1rnYVYITgCsyGrAVpQIPEF5F45ZvkygegMfROFJ3wrJCYCVxXXAZuARYDsupmLZuox6XOwD9lO8RZlmV3ECYGV1O/AgKuO7jeqsOLfsDKFJ/wDwIVpkaVYaTgCsCm5EycD2KJaFHY7l1DjapncQ+JhG2WqzUnICYFV0J1o78ACwCW1bs+qZBI4BnwGfoop8LsVrleEEwKquA9Ub2IySgfvxzoKymgB+BA5H8TnqUmlWSU4AzK7WhxKBTegpQdGbzVTVKGrQdCSKo6hIkpnhBMAsjQWoA929iVgbdEQ2nV/QJB93Z/wGV+Azm5ETALPmLOG/CcE9+ElBu4ygd/cDqOviIGrD7Pf3ZrPgBMAsO4vReoI1QC96ldCLeth3BRxXUY2gjoknULW9E2ji/xm4EnBcZqXgBMCs9eagwkS9U2IFWnBY5cY5F9Cj+9PRMT4/BfyKt+GZtYwTALOwaqhl7nJUn2ApSgyWRtGDXjfUQg2wSZOoe+EQaooztc3x2SiGQg3QrOqcAJjlXwdqw9uNFiR2XyPmoRa+pDwHLZYbSfw8AZwHxoCLNNoHX4xiOPr9cOI8nvDjox/Tm+XYPyiPTclOlhBaAAAAAElFTkSuQmCC;" vertex="1" parent="XLvU0yG2LY_oLD_sJJi3-68">
          <mxGeometry x="731" y="342.46" width="152" height="152" as="geometry" />
        </mxCell>
        <mxCell id="XLvU0yG2LY_oLD_sJJi3-88" value="" style="endArrow=classic;startArrow=classic;html=1;rounded=0;labelBackgroundColor=default;strokeColor=#666666;strokeWidth=3;align=center;verticalAlign=middle;fontFamily=Helvetica;fontSize=12;fontColor=default;shape=connector;" edge="1" parent="XLvU0yG2LY_oLD_sJJi3-68">
          <mxGeometry width="50" height="50" relative="1" as="geometry">
            <mxPoint x="809" y="302.46" as="sourcePoint" />
            <mxPoint x="809" y="182.46" as="targetPoint" />
          </mxGeometry>
        </mxCell>
        <mxCell id="XLvU0yG2LY_oLD_sJJi3-90" value="" style="rounded=1;whiteSpace=wrap;html=1;labelBackgroundColor=#ffffff;strokeColor=#666666;align=center;verticalAlign=middle;fontFamily=Helvetica;fontSize=12;fontColor=#333333;fillColor=#f5f5f5;strokeWidth=3;" vertex="1" parent="XLvU0yG2LY_oLD_sJJi3-68">
          <mxGeometry x="466" y="84.46" width="120" height="105.54" as="geometry" />
        </mxCell>
        <mxCell id="XLvU0yG2LY_oLD_sJJi3-75" value="" style="shape=image;verticalLabelPosition=bottom;labelBackgroundColor=default;verticalAlign=top;aspect=fixed;imageAspect=0;image=https://linuxscriptshub.com/wp-content/uploads/2017/04/Nginx-Logo.png;movable=1;resizable=1;rotatable=1;deletable=1;editable=1;locked=0;connectable=1;" vertex="1" parent="XLvU0yG2LY_oLD_sJJi3-68">
          <mxGeometry x="486" y="96.46" width="80" height="80" as="geometry" />
        </mxCell>
        <mxCell id="XLvU0yG2LY_oLD_sJJi3-93" value="" style="shape=image;html=1;verticalAlign=top;verticalLabelPosition=bottom;labelBackgroundColor=#ffffff;imageAspect=0;aspect=fixed;image=https://cdn1.iconfinder.com/data/icons/social-media-2106/24/social_media_social_media_logo_docker-128.png" vertex="1" parent="XLvU0yG2LY_oLD_sJJi3-68">
          <mxGeometry x="556" y="62.46000000000001" width="40" height="40" as="geometry" />
        </mxCell>
        <mxCell id="XLvU0yG2LY_oLD_sJJi3-54" value="" style="edgeStyle=orthogonalEdgeStyle;shape=connector;rounded=0;orthogonalLoop=1;jettySize=auto;html=1;labelBackgroundColor=default;strokeColor=#666666;strokeWidth=3;align=center;verticalAlign=middle;fontFamily=Helvetica;fontSize=11;fontColor=default;endArrow=classic;" edge="1" parent="1">
          <mxGeometry relative="1" as="geometry">
            <mxPoint x="643" y="340" as="sourcePoint" />
            <mxPoint x="643.0000000000005" y="238.54999999999995" as="targetPoint" />
            <Array as="points">
              <mxPoint x="643" y="296" />
              <mxPoint x="643" y="296" />
            </Array>
          </mxGeometry>
        </mxCell>
        <mxCell id="XLvU0yG2LY_oLD_sJJi3-60" style="edgeStyle=orthogonalEdgeStyle;shape=connector;rounded=0;orthogonalLoop=1;jettySize=auto;html=1;entryX=0.5;entryY=0;entryDx=0;entryDy=0;labelBackgroundColor=default;strokeColor=#666666;strokeWidth=3;align=center;verticalAlign=middle;fontFamily=Helvetica;fontSize=11;fontColor=default;endArrow=classic;startArrow=classic;" edge="1" parent="1" source="XLvU0yG2LY_oLD_sJJi3-3" target="XLvU0yG2LY_oLD_sJJi3-58">
          <mxGeometry relative="1" as="geometry">
            <Array as="points">
              <mxPoint x="736" y="580" />
              <mxPoint x="736" y="580" />
            </Array>
          </mxGeometry>
        </mxCell>
        <mxCell id="XLvU0yG2LY_oLD_sJJi3-61" style="edgeStyle=orthogonalEdgeStyle;rounded=0;orthogonalLoop=1;jettySize=auto;html=1;exitX=0.25;exitY=1;exitDx=0;exitDy=0;labelBackgroundColor=default;strokeColor=#666666;strokeWidth=3;align=center;verticalAlign=middle;fontFamily=Helvetica;fontSize=11;fontColor=default;endArrow=classic;startArrow=classic;" edge="1" parent="1" source="XLvU0yG2LY_oLD_sJJi3-3" target="XLvU0yG2LY_oLD_sJJi3-29">
          <mxGeometry relative="1" as="geometry" />
        </mxCell>
        <mxCell id="XLvU0yG2LY_oLD_sJJi3-3" value="" style="rounded=1;whiteSpace=wrap;html=1;strokeWidth=3;strokeColor=#666666;fillColor=#f5f5f5;fontColor=#333333;" vertex="1" parent="1">
          <mxGeometry x="378" y="340" width="546" height="220" as="geometry" />
        </mxCell>
        <mxCell id="XLvU0yG2LY_oLD_sJJi3-9" value="" style="shape=image;html=1;verticalAlign=top;verticalLabelPosition=bottom;labelBackgroundColor=#ffffff;imageAspect=0;aspect=fixed;image=https://cdn1.iconfinder.com/data/icons/social-media-2106/24/social_media_social_media_logo_docker-128.png" vertex="1" parent="1">
          <mxGeometry x="840" y="297" width="84" height="84" as="geometry" />
        </mxCell>
        <mxCell id="XLvU0yG2LY_oLD_sJJi3-10" value="" style="shape=image;verticalLabelPosition=bottom;labelBackgroundColor=default;verticalAlign=top;aspect=fixed;imageAspect=0;image=https://upload.wikimedia.org/wikipedia/commons/thumb/d/d9/Node.js_logo.svg/590px-Node.js_logo.svg.png;" vertex="1" parent="1">
          <mxGeometry x="500" y="359.47" width="221.5" height="135.53" as="geometry" />
        </mxCell>
        <mxCell id="XLvU0yG2LY_oLD_sJJi3-13" value="" style="shape=image;verticalLabelPosition=bottom;labelBackgroundColor=default;verticalAlign=top;aspect=fixed;imageAspect=0;image=https://www.vectorlogo.zone/logos/socketio/socketio-ar21.svg;fontSize=18;fontStyle=1" vertex="1" parent="1">
          <mxGeometry x="736.5" y="386" width="168" height="84" as="geometry" />
        </mxCell>
        <mxCell id="XLvU0yG2LY_oLD_sJJi3-21" value="" style="shape=image;verticalLabelPosition=bottom;labelBackgroundColor=default;verticalAlign=top;aspect=fixed;imageAspect=0;image=https://upload.wikimedia.org/wikipedia/commons/thumb/6/64/Logo-redis.svg/512px-Logo-redis.svg.png?20210820223643;" vertex="1" parent="1">
          <mxGeometry x="418" y="495" width="142" height="48.54" as="geometry" />
        </mxCell>
        <mxCell id="XLvU0yG2LY_oLD_sJJi3-22" value="" style="shape=image;verticalLabelPosition=bottom;labelBackgroundColor=default;verticalAlign=top;aspect=fixed;imageAspect=0;image=https://www.vectorlogo.zone/logos/jestjsio/jestjsio-ar21.svg;" vertex="1" parent="1">
          <mxGeometry x="140" y="210" width="90" height="45" as="geometry" />
        </mxCell>
        <mxCell id="XLvU0yG2LY_oLD_sJJi3-23" value="" style="shape=image;verticalLabelPosition=bottom;labelBackgroundColor=default;verticalAlign=top;aspect=fixed;imageAspect=0;image=https://upload.wikimedia.org/wikipedia/commons/thumb/7/71/RabbitMQ_logo.svg/172px-RabbitMQ_logo.svg.png;" vertex="1" parent="1">
          <mxGeometry x="721.5" y="502.99999999999994" width="186" height="29.2" as="geometry" />
        </mxCell>
        <mxCell id="XLvU0yG2LY_oLD_sJJi3-36" style="edgeStyle=orthogonalEdgeStyle;rounded=0;orthogonalLoop=1;jettySize=auto;html=1;strokeWidth=3;strokeColor=#666666;" edge="1" parent="1">
          <mxGeometry relative="1" as="geometry">
            <mxPoint x="115" y="460" as="sourcePoint" />
            <mxPoint x="115" y="549" as="targetPoint" />
          </mxGeometry>
        </mxCell>
        <mxCell id="XLvU0yG2LY_oLD_sJJi3-25" value="" style="shape=image;verticalLabelPosition=bottom;labelBackgroundColor=default;verticalAlign=top;aspect=fixed;imageAspect=0;image=https://assets-global.website-files.com/6203daf47137054c031fa0e6/63306942721a28becf0ded7a_github-actions.svg;" vertex="1" parent="1">
          <mxGeometry x="43.17" y="302" width="143.66" height="143.66" as="geometry" />
        </mxCell>
        <mxCell id="XLvU0yG2LY_oLD_sJJi3-49" style="edgeStyle=orthogonalEdgeStyle;shape=connector;rounded=0;orthogonalLoop=1;jettySize=auto;html=1;exitX=1;exitY=0.5;exitDx=0;exitDy=0;labelBackgroundColor=default;strokeColor=#666666;strokeWidth=3;align=center;verticalAlign=middle;fontFamily=Helvetica;fontSize=11;fontColor=default;endArrow=classic;" edge="1" parent="1">
          <mxGeometry relative="1" as="geometry">
            <mxPoint x="280" y="597" as="targetPoint" />
            <mxPoint x="218.62000000000012" y="597.0000000000002" as="sourcePoint" />
          </mxGeometry>
        </mxCell>
        <mxCell id="XLvU0yG2LY_oLD_sJJi3-34" value="" style="shape=image;verticalLabelPosition=bottom;labelBackgroundColor=default;verticalAlign=top;aspect=fixed;imageAspect=0;image=https://linuxteaching.com/storage/img/images_4/docker_hub.png;imageBorder=none;imageBackground=none;fillStyle=dashed;" vertex="1" parent="1">
          <mxGeometry x="26.379999999999995" y="560" width="177.24" height="74" as="geometry" />
        </mxCell>
        <mxCell id="XLvU0yG2LY_oLD_sJJi3-35" style="edgeStyle=orthogonalEdgeStyle;rounded=0;orthogonalLoop=1;jettySize=auto;html=1;exitX=0.5;exitY=1;exitDx=0;exitDy=0;" edge="1" parent="1" source="XLvU0yG2LY_oLD_sJJi3-34" target="XLvU0yG2LY_oLD_sJJi3-34">
          <mxGeometry relative="1" as="geometry" />
        </mxCell>
        <mxCell id="XLvU0yG2LY_oLD_sJJi3-41" style="edgeStyle=orthogonalEdgeStyle;rounded=0;orthogonalLoop=1;jettySize=auto;html=1;strokeWidth=3;strokeColor=#666666;" edge="1" parent="1">
          <mxGeometry relative="1" as="geometry">
            <mxPoint x="115" y="280" as="targetPoint" />
            <mxPoint x="115" y="190" as="sourcePoint" />
          </mxGeometry>
        </mxCell>
        <mxCell id="XLvU0yG2LY_oLD_sJJi3-40" value="" style="shape=image;verticalLabelPosition=bottom;labelBackgroundColor=#FF3333;verticalAlign=top;aspect=fixed;imageAspect=0;image=https://uxwing.com/wp-content/themes/uxwing/download/web-app-development/programmer-icon.png;imageBackground=none;" vertex="1" parent="1">
          <mxGeometry x="65" y="56" width="100" height="119.07" as="geometry" />
        </mxCell>
        <mxCell id="XLvU0yG2LY_oLD_sJJi3-80" value="" style="group;" vertex="1" connectable="0" parent="1">
          <mxGeometry x="576" y="610" width="320" height="180" as="geometry" />
        </mxCell>
        <mxCell id="XLvU0yG2LY_oLD_sJJi3-58" value="" style="rounded=1;whiteSpace=wrap;html=1;fontFamily=Helvetica;fontSize=12;dashed=1;strokeColor=#6c8ebf;strokeWidth=3;fillColor=#dae8fc;" vertex="1" parent="XLvU0yG2LY_oLD_sJJi3-80">
          <mxGeometry width="320" height="180" as="geometry" />
        </mxCell>
        <mxCell id="XLvU0yG2LY_oLD_sJJi3-4" value="Amazon S3" style="sketch=0;outlineConnect=0;strokeColor=#6c8ebf;fillColor=#dae8fc;dashed=0;verticalLabelPosition=middle;verticalAlign=bottom;align=center;html=1;whiteSpace=wrap;fontSize=16;fontStyle=1;spacing=12;shape=mxgraph.aws4.productIcon;prIcon=mxgraph.aws4.s3;labelBorderColor=none;" vertex="1" parent="XLvU0yG2LY_oLD_sJJi3-80">
          <mxGeometry x="178" y="15" width="110" height="158" as="geometry" />
        </mxCell>
        <mxCell id="XLvU0yG2LY_oLD_sJJi3-6" value="Amazon Cloudfront" style="sketch=0;outlineConnect=0;strokeColor=#6c8ebf;fillColor=#dae8fc;dashed=0;verticalLabelPosition=middle;verticalAlign=bottom;align=center;html=1;whiteSpace=wrap;fontSize=16;fontStyle=1;spacing=3;shape=mxgraph.aws4.productIcon;prIcon=mxgraph.aws4.cloudfront;labelBorderColor=none;container=1;" vertex="1" parent="XLvU0yG2LY_oLD_sJJi3-80">
          <mxGeometry x="40" y="14" width="110" height="158" as="geometry" />
        </mxCell>
        <mxCell id="XLvU0yG2LY_oLD_sJJi3-81" value="" style="group" vertex="1" connectable="0" parent="1">
          <mxGeometry x="363" y="45.54" width="446" height="258.06" as="geometry" />
        </mxCell>
        <mxCell id="XLvU0yG2LY_oLD_sJJi3-15" value="" style="rounded=1;whiteSpace=wrap;html=1;strokeWidth=3;strokeColor=#666666;fillColor=#f5f5f5;fontColor=#333333;movable=1;resizable=1;rotatable=1;deletable=1;editable=1;locked=0;connectable=1;" vertex="1" parent="XLvU0yG2LY_oLD_sJJi3-81">
          <mxGeometry x="70" y="50.46" width="350" height="174" as="geometry" />
        </mxCell>
        <mxCell id="XLvU0yG2LY_oLD_sJJi3-19" value="" style="shape=image;verticalLabelPosition=bottom;labelBackgroundColor=default;verticalAlign=top;aspect=fixed;imageAspect=0;image=https://repository-images.githubusercontent.com/180328715/fca49300-e7f1-11ea-9f51-cfd949b31560;" vertex="1" parent="XLvU0yG2LY_oLD_sJJi3-81">
          <mxGeometry y="129.53" width="220.18" height="128.53" as="geometry" />
        </mxCell>
        <mxCell id="XLvU0yG2LY_oLD_sJJi3-16" value="" style="shape=image;verticalLabelPosition=bottom;labelBackgroundColor=default;verticalAlign=top;aspect=fixed;imageAspect=0;image=https://editor.revealit.dk/sites/default/files/2019-08/react-logo-inline.svg;" vertex="1" parent="XLvU0yG2LY_oLD_sJJi3-81">
          <mxGeometry x="202.18000000000006" y="140" width="180.73" height="53.01" as="geometry" />
        </mxCell>
        <mxCell id="XLvU0yG2LY_oLD_sJJi3-52" value="" style="shape=image;verticalLabelPosition=bottom;labelBackgroundColor=default;verticalAlign=top;aspect=fixed;imageAspect=0;image=https://upload.wikimedia.org/wikipedia/commons/thumb/9/95/Tailwind_CSS_logo.svg/512px-Tailwind_CSS_logo.svg.png;" vertex="1" parent="XLvU0yG2LY_oLD_sJJi3-81">
          <mxGeometry x="130.63" y="88.46000000000001" width="205.37" height="25.27" as="geometry" />
        </mxCell>
        <mxCell id="XLvU0yG2LY_oLD_sJJi3-76" value="" style="shape=image;html=1;verticalAlign=top;verticalLabelPosition=bottom;labelBackgroundColor=#ffffff;imageAspect=0;aspect=fixed;image=https://cdn1.iconfinder.com/data/icons/social-media-2106/24/social_media_social_media_logo_docker-128.png" vertex="1" parent="XLvU0yG2LY_oLD_sJJi3-81">
          <mxGeometry x="358" width="84.46" height="84.46" as="geometry" />
        </mxCell>
        <mxCell id="XLvU0yG2LY_oLD_sJJi3-95" style="edgeStyle=orthogonalEdgeStyle;shape=connector;rounded=0;orthogonalLoop=1;jettySize=auto;html=1;exitX=1;exitY=0.5;exitDx=0;exitDy=0;entryX=0;entryY=0.5;entryDx=0;entryDy=0;labelBackgroundColor=default;strokeColor=#666666;strokeWidth=3;align=center;verticalAlign=middle;fontFamily=Helvetica;fontSize=12;fontColor=default;endArrow=none;startArrow=none;startFill=0;" edge="1" parent="1" source="XLvU0yG2LY_oLD_sJJi3-15" target="XLvU0yG2LY_oLD_sJJi3-90">
          <mxGeometry relative="1" as="geometry" />
        </mxCell>
      </root>
    </mxGraphModel>
  </diagram>
</mxfile>
